<?xml version="1.0" encoding="iso-8859-1"?>
<!-- Generator: Adobe Illustrator 19.0.0, SVG Export Plug-In . SVG Version: 6.00 Build 0)  -->
<svg version="1.1" id="Layer_1" xmlns="http://www.w3.org/2000/svg" xmlns:xlink="http://www.w3.org/1999/xlink" x="0px" y="0px"
	 viewBox="0 0 512 512" style="enable-background:new 0 0 512 512;" xml:space="preserve">
<path style="fill:#A1A1A1;" d="M442.26,212.899h-31.7h-19.02H99.901c-7.003,0-12.68,5.677-12.68,12.68v52.622
	c0,89.287,72.382,161.67,161.67,161.67l0,0c62.548,0,116.794-35.523,143.678-87.492h49.692c38.455,0,69.74-31.285,69.74-69.74
	S480.715,212.899,442.26,212.899z M442.26,314.339h-35.759c2.653-11.62,4.059-23.714,4.059-36.138v-27.262h31.7
	c17.479,0,31.7,14.221,31.7,31.7C473.96,300.119,459.739,314.339,442.26,314.339z"/>
<path style="fill:#D6D6D6;" d="M99.901,212.899h148.99v226.972l0,0c-89.287,0-161.67-72.382-161.67-161.67v-52.622
	C87.221,218.576,92.897,212.899,99.901,212.899z"/>
<path style="fill:#625F69;" d="M478.759,413.072H19.02c-10.504,0-19.02,8.516-19.02,19.02c0,10.504,8.516,19.02,19.02,19.02h51.996
	l6.632,12.499c12.845,24.209,38.01,39.343,65.415,39.343h105.827h105.827c27.405,0,52.57-15.135,65.415-39.343l6.632-12.499h51.996
	c10.504,0,19.02-8.516,19.02-19.02S489.264,413.072,478.759,413.072z"/>
<path style="fill:#827E8C;" d="M248.89,413.072H19.02c-10.504,0-19.02,8.516-19.02,19.02c0,10.504,8.516,19.02,19.02,19.02h51.996
	l6.632,12.499c12.845,24.209,38.01,39.343,65.415,39.343h105.827v-51.842v-38.04H248.89z"/>
<path style="fill:#F3A938;" d="M208.53,169.767c-4.735,0-9.433-2.024-12.7-5.944c-13.154-15.785-29.872-53.799,1.011-84.679
	c4.687-4.687,10.45-12.601,6.403-27.164c-2.569-9.253-7.765-16.271-7.816-16.338c-5.564-7.233-4.21-17.604,3.022-23.168
	s17.604-4.21,23.168,3.023c12.873,16.734,29.144,56.456-1.413,87.013c-7.367,7.367-9.424,15.472-6.472,25.507
	c2.429,8.258,7.433,14.597,7.482,14.656c5.84,7.009,4.894,17.426-2.116,23.268C216.01,168.512,212.259,169.767,208.53,169.767z"/>
<path style="fill:#DE9833;" d="M295.856,169.767c-4.735,0-9.433-2.024-12.7-5.944c-13.154-15.785-29.872-53.799,1.011-84.679
	c4.687-4.687,10.45-12.601,6.403-27.164c-2.569-9.253-7.765-16.271-7.816-16.338c-5.564-7.233-4.21-17.604,3.022-23.168
	c7.233-5.564,17.605-4.21,23.168,3.023c12.873,16.734,29.144,56.456-1.413,87.013c-7.367,7.367-9.424,15.472-6.472,25.507
	c2.428,8.258,7.433,14.597,7.481,14.656c5.84,7.009,4.894,17.426-2.116,23.268C303.336,168.512,299.585,169.767,295.856,169.767z"/>
<g>
</g>
<g>
</g>
<g>
</g>
<g>
</g>
<g>
</g>
<g>
</g>
<g>
</g>
<g>
</g>
<g>
</g>
<g>
</g>
<g>
</g>
<g>
</g>
<g>
</g>
<g>
</g>
<g>
</g>
</svg>
