<?xml version="1.0" encoding="iso-8859-1"?>
<!-- Generator: Adobe Illustrator 19.0.0, SVG Export Plug-In . SVG Version: 6.00 Build 0)  -->
<svg version="1.1" id="Capa_1" xmlns="http://www.w3.org/2000/svg" xmlns:xlink="http://www.w3.org/1999/xlink" x="0px" y="0px"
	 viewBox="0 0 512 512" style="enable-background:new 0 0 512 512;" xml:space="preserve">
<g>
	<path style="fill:#FFBA4C;" d="M123.615,119.813c33.661-13.468,35.567-34.245,16.794-62.029l-94.44,27.815L123.615,119.813z"/>
	<path style="fill:#838383;" d="M326.396,158.654C367.013-0.671,178.471-28.037,140.409,57.784
		c18.772,27.783,16.866,48.561-16.793,62.026c67.317,0.693,202.162,234.16,31.729,321.618c21.337,36.47,51.815,60.569,94.182,60.569
		h190.872c30.051,0,35.8-35.53,0.916-35.53c-61.548,0-90.425-90.681-96.613-150.209c0,0,73.47,16.13,107.215,29.832
		c33.745,13.708,4.702-96.617-64.026-138.72C319.16,165.27,315.093,202.997,326.396,158.654z"/>
	<path style="fill:#F0F0F0;" d="M155.344,441.429c170.434-87.458,35.589-320.924-31.73-321.616
		C105.769,182.818,102.17,350.541,155.344,441.429z"/>
	<path style="fill:#FFBA4C;" d="M249.526,501.998c-42.366,0-72.845-24.1-94.182-60.569c-15.167,7.784-32.753,14.411-53.022,19.613
		c-32.34,9.491-32.81,40.956-4.528,40.956H249.526z"/>
</g>
<path d="M465.642,463.627c-6.018-4.684-14.431-7.16-24.328-7.16c-23.559,0-43.813-15.947-60.197-47.401
	c-11.272-21.637-20.18-50.689-24.664-79.858c22.771,5.339,67.862,16.47,91.698,26.148c10.466,4.25,20.216,1.08,24.841-8.079
	c8.143-16.118-1.403-47.287-13.052-71.082c-9.511-19.426-30.837-55.306-66.826-77.353c-31.327-19.191-50.602-22.77-60.534-24.276
	c0.409-1.626,0.897-3.471,1.379-5.29c0.624-2.357,1.339-5.057,2.128-8.151c10.059-39.457,7.598-73.772-7.316-101.989
	C316,34.972,293.913,16.447,266.576,6.976c-25.08-8.689-53.553-9.288-78.118-1.648c-25.03,7.787-44.434,23.361-55.137,44.121
	L43.144,76.006c-4.027,1.187-6.885,4.761-7.155,8.951c-0.27,4.189,2.105,8.102,5.947,9.794l69.89,30.797
	c-7.85,33.8-13.076,92.648-8.161,157.236c3.5,46.001,13.048,106.583,37.847,154.276c-12.232,5.466-26.052,10.286-41.676,14.298
	c-0.045,0.012-0.088,0.029-0.133,0.041c-0.066,0.019-0.132,0.028-0.198,0.048c-24.706,7.251-33.889,24.961-31.965,38.348
	C69.013,500.038,77.819,512,97.794,512h342.604c21.829,0,34.873-14.808,34.873-29.123
	C475.271,475.405,471.762,468.39,465.642,463.627z M75.016,87.47l60.942-17.947c5.572,9.714,7.49,17.611,5.675,23.52
	c-1.825,5.941-7.869,11.269-17.96,15.869L75.016,87.47z M123.611,281.265c-4.718-62.005,0.105-118.012,7.461-150.176
	c33.059,10.098,86.342,79.011,95.695,156.224c5.619,46.404-3.625,103.953-67.356,140.669
	C140.66,391.747,128.15,340.924,123.611,281.265z M97.794,491.997c-4.703,0-9.919-1.326-10.454-5.048
	c-0.633-4.407,4.448-12.361,17.714-16.283c16.958-4.367,32.478-9.805,46.532-16.286c2.165,3.311,4.421,6.53,6.777,9.644
	c8.555,11.315,17.942,20.646,28.126,27.975L97.794,491.997L97.794,491.997z M440.398,491.997H249.526
	c-29.816,0-55.12-13.471-75.209-40.038c-1.655-2.189-3.275-4.474-4.862-6.847c22.995-13.369,41.171-30.109,54.321-50.114
	c19.986-30.402,27.885-68.471,22.845-110.09c-4.905-40.503-22.139-83.992-47.28-119.317c-16.286-22.882-34.127-39.737-50.888-48.634
	c6.115-5.223,10.199-11.204,12.3-18.044c3.72-12.112,0.803-25.812-8.871-41.733c19.618-35.832,70.333-44.407,108.144-31.306
	c19.379,6.714,80.734,35.952,56.679,130.309c-0.772,3.026-1.47,5.666-2.081,7.973c-3.068,11.591-4.608,17.408-0.85,23.115
	c3.452,5.239,9.012,6.063,14.388,6.859c8.742,1.294,25.013,3.702,54.505,21.769c36.577,22.407,63.603,68.219,71.395,101.893
	c2.381,10.291,2.118,16.305,1.551,19.007c-34.167-13.856-105.734-29.642-108.766-30.308c-3.137-0.686-6.414,0.171-8.808,2.311
	c-2.395,2.139-3.616,5.298-3.284,8.492c1.799,17.304,8.19,61.786,28.624,101.014c19.822,38.05,46.772,58.162,77.936,58.162
	c7.19,0,10.631,1.843,12.043,2.942c1.287,1.001,1.912,2.135,1.912,3.464C455.269,486.555,450.543,491.997,440.398,491.997z"/>
<path d="M215.034,58.544c-11.017,0-20.002,8.985-20.002,20.002s8.985,20.002,20.002,20.002c11.017,0,20.002-8.985,20.002-20.002
	S226.051,58.544,215.034,58.544z"/>
<path d="M272.901,316.757c-5.478-0.288-10.104,3.937-10.436,9.377c-0.004,0.06-0.007,0.123-0.01,0.175
	c-0.276,5.516,3.972,10.212,9.489,10.487c0.17,0.009,0.339,0.013,0.507,0.013c5.25,0,9.641-4.087,9.974-9.37
	c0.005-0.079,0.01-0.168,0.013-0.237C282.687,321.683,278.417,317.007,272.901,316.757z"/>
<path d="M270.569,345.856c-5.391-1.182-10.731,2.219-11.92,7.613c-3.825,17.347-12.106,42.413-29.835,63.318
	c-3.572,4.212-3.053,10.523,1.159,14.096c1.88,1.594,4.177,2.373,6.464,2.373c2.836,0,5.653-1.2,7.632-3.532
	c20.381-24.031,29.799-52.389,34.114-71.947C279.372,352.383,275.964,347.046,270.569,345.856z"/>
<g>
</g>
<g>
</g>
<g>
</g>
<g>
</g>
<g>
</g>
<g>
</g>
<g>
</g>
<g>
</g>
<g>
</g>
<g>
</g>
<g>
</g>
<g>
</g>
<g>
</g>
<g>
</g>
<g>
</g>
</svg>
