<?xml version="1.0" encoding="iso-8859-1"?>
<!-- Generator: Adobe Illustrator 19.0.0, SVG Export Plug-In . SVG Version: 6.00 Build 0)  -->
<svg version="1.1" id="Layer_1" xmlns="http://www.w3.org/2000/svg" xmlns:xlink="http://www.w3.org/1999/xlink" x="0px" y="0px"
	 viewBox="0 0 512.001 512.001" style="enable-background:new 0 0 512.001 512.001;" xml:space="preserve">
<polygon style="fill:#E6E6E6;" points="150.837,459.24 52.76,361.164 31.266,432.193 79.808,480.736 "/>
<polygon style="fill:#B3B3B3;" points="79.808,480.736 31.266,432.193 10.199,501.801 "/>
<rect x="167.074" y="85.197" transform="matrix(0.7071 0.7071 -0.7071 0.7071 264.1103 -86.4613)" style="fill:#FFBA57;" width="138.698" height="380.763"/>
<rect x="363.95" y="54.481" transform="matrix(-0.7071 0.7071 -0.7071 -0.7071 750.1869 -63.0778)" style="fill:#E6E6E6;" width="48.415" height="138.698"/>
<path style="fill:#E8655A;" d="M491.326,118.751c13.967-13.967,13.967-36.613,0-50.58L443.83,20.675
	c-13.967-13.968-36.613-13.968-50.58,0l-37.01,37.01l98.076,98.076L491.326,118.751z"/>
<g>
	<path style="fill:#603813;" d="M45.548,353.953c0,0-0.004,0.011-0.012,0.033c-1.158,1.165-2.046,2.601-2.538,4.226L0.437,498.848
		c-1.089,3.599-0.109,7.507,2.55,10.167C4.928,510.954,7.535,512,10.2,512c0.986,0,1.981-0.144,2.954-0.438l140.637-42.561
		c1.631-0.494,3.073-1.386,4.24-2.551c0.003,0,0.018,0.001,0.018,0.001l340.489-340.489l0,0
		c8.682-8.682,13.463-20.225,13.463-32.502c0-12.278-4.781-23.82-13.463-32.503l-47.496-47.495C442.361,4.782,430.817,0,418.539,0
		s-23.82,4.781-32.502,13.463L45.548,353.953z M356.24,72.109l83.652,83.652l-19.81,19.81L336.43,91.919L356.24,72.109z
		 M150.837,444.816l-83.652-83.652l254.821-254.821l83.652,83.652L150.837,444.816z M57.59,380.417l73.993,73.993L82.7,469.204
		L42.797,429.3L57.59,380.417z M36.094,451.447l24.46,24.46L25.48,486.521L36.094,451.447z M484.114,111.539L484.114,111.539
		l-29.798,29.798l-83.652-83.652l29.798-29.798c4.828-4.829,11.249-7.488,18.077-7.488c6.829,0,13.25,2.659,18.078,7.488
		l47.496,47.496c4.829,4.829,7.488,11.249,7.488,18.078S488.943,106.71,484.114,111.539z"/>
	<path style="fill:#603813;" d="M307.069,256.948c-3.983-3.983-10.441-3.983-14.425,0l-4.08,4.08
		c-3.983,3.983-3.983,10.441,0,14.425c1.992,1.992,4.602,2.987,7.212,2.987c2.61,0,5.221-0.995,7.212-2.987l4.08-4.08
		C311.052,267.389,311.052,260.931,307.069,256.948z"/>
	<path style="fill:#603813;" d="M258.987,290.605L143.736,405.856c-3.983,3.983-3.983,10.441,0,14.425
		c1.992,1.992,4.602,2.987,7.212,2.987c2.61,0,5.221-0.995,7.212-2.987L273.411,305.03c3.983-3.983,3.983-10.441,0-14.425
		C269.428,286.622,262.97,286.622,258.987,290.605z"/>
</g>
<g>
</g>
<g>
</g>
<g>
</g>
<g>
</g>
<g>
</g>
<g>
</g>
<g>
</g>
<g>
</g>
<g>
</g>
<g>
</g>
<g>
</g>
<g>
</g>
<g>
</g>
<g>
</g>
<g>
</g>
</svg>
