<?xml version="1.0" encoding="iso-8859-1"?>
<!-- Generator: Adobe Illustrator 19.0.0, SVG Export Plug-In . SVG Version: 6.00 Build 0)  -->
<svg version="1.1" id="Capa_1" xmlns="http://www.w3.org/2000/svg" xmlns:xlink="http://www.w3.org/1999/xlink" x="0px" y="0px"
	 viewBox="0 0 512 512" style="enable-background:new 0 0 512 512;" xml:space="preserve">
<path style="fill:#3A484A;" d="M494.274,254.331C493.414,117.866,387.067,7.5,256.01,7.5S18.605,117.866,17.745,254.331
	l101.766,122.482h308.694L494.274,254.331z"/>
<path style="fill:#313D40;" d="M63.171,309.004c-3.558-17.079-5.436-34.812-5.436-53.004c0-0.56,0-1.11,0.01-1.669
	C58.56,124.881,154.301,18.932,276.009,8.38c-1.457-0.126-2.919-0.234-4.383-0.334c-5.186-0.355-10.386-0.544-15.584-0.544
	c-0.011,0-0.022,0-0.033,0c-104.436,0-193.181,70.083-225.36,167.609c-8.421,25.521-12.735,52.353-12.904,79.221L63.171,309.004z"/>
<path style="fill:#EFEDEE;" d="M494.284,256c0,137.245-106.677,248.5-238.274,248.5S17.735,393.245,17.735,256
	c0-0.56,0-1.11,0.01-1.669c1.809-129.508,213.994-148.65,213.994-18.073h48.541c0-130.577,212.185-111.435,213.994,18.073
	C494.284,254.89,494.284,255.44,494.284,256z"/>
<path style="fill:#D4D2D3;" d="M261.523,504.42c2.972-0.082,5.943-0.221,8.914-0.387c1.859-0.108,3.717-0.252,5.572-0.412
	C153.773,493.024,57.735,386.218,57.735,256c0-0.56,0-1.11,0.01-1.669c0.205-32.49,6.392-63.497,17.466-91.89
	c-32.286,17.055-56.855,48.187-57.466,91.89c-0.31,17.33,1.496,34.753,4.831,51.751c8.332,42.464,27.049,80.983,53.262,112.543
	c16.228,19.538,35.328,36.409,56.616,49.899c4.915,3.115,9.946,6.049,15.079,8.79c13.767,7.353,28.279,13.326,43.244,17.759
	c20.731,6.14,42.613,9.427,65.231,9.427C257.849,504.5,259.686,504.471,261.523,504.42z"/>
<path style="fill:#ECB000;" d="M301.521,257.669c1.189,3.219,1.829,6.617,1.829,10.136c0,20.282-21.191,36.725-47.341,36.725
	s-47.341-16.443-47.341-36.725c0-3.519,0.64-6.917,1.829-10.136H301.521z"/>
<path style="fill:#FFCE1C;" d="M301.521,257.669c-5.658,9.166-23.89,15.874-45.512,15.874c-21.621,0-39.854-6.707-45.512-15.874
	c5.668-15.364,23.89-26.599,45.512-26.599S295.853,242.306,301.521,257.669z"/>
<g>
	<path style="fill:#F98084;" d="M133.287,280.685h-27.55c-4.142,0-7.5-3.358-7.5-7.5s3.358-7.5,7.5-7.5h27.55
		c4.142,0,7.5,3.358,7.5,7.5S137.429,280.685,133.287,280.685z"/>
	<path style="fill:#F98084;" d="M406.283,280.685h-27.551c-4.143,0-7.5-3.358-7.5-7.5s3.357-7.5,7.5-7.5h27.551
		c4.143,0,7.5,3.358,7.5,7.5S410.425,280.685,406.283,280.685z"/>
</g>
<path d="M148.288,243.107v-20.851c0-4.142-3.358-7.5-7.5-7.5s-7.5,3.358-7.5,7.5v20.851c0,4.142,3.358,7.5,7.5,7.5
	S148.288,247.249,148.288,243.107z"/>
<path d="M378.706,243.107v-20.851c0-4.142-3.358-7.5-7.5-7.5s-7.5,3.358-7.5,7.5v20.851c0,4.142,3.358,7.5,7.5,7.5
	S378.706,247.249,378.706,243.107z"/>
<path d="M501.761,254.283c0-0.018-0.001-0.035-0.001-0.061c-0.443-67.935-26.156-131.747-72.409-179.688
	C382.98,26.47,321.415,0,255.997,0c-52.208,0-102.081,16.845-144.226,48.715c-3.304,2.498-3.957,7.202-1.459,10.506
	c2.498,3.303,7.202,3.957,10.506,1.458C160.338,30.796,207.081,15,255.997,15c61.31,0,119.041,24.842,162.559,69.948
	c27.288,28.284,46.985,62.449,57.999,99.774c-0.073-0.086-0.146-0.167-0.219-0.253c-4.914-5.807-10.418-11.083-16.356-15.834
	c-23.316-18.563-54.55-29.131-85.689-28.867c-23.848,0.167-45.9,6.654-63.084,18.421c-17.325,11.863-29.847,30.18-35.085,50.471
	c-1.425,5.522-2.357,11.164-2.873,16.841c-0.008,0.086-0.021,0.17-0.028,0.257c-5.434-1.424-11.227-2.188-17.223-2.188
	s-11.789,0.764-17.223,2.188c-0.007-0.076-0.018-0.15-0.025-0.227c-0.554-6.163-1.534-12.352-3.256-18.302
	c-4.65-16.967-14.17-32.319-27.648-43.677c-17.977-15.147-42.887-23.594-70.141-23.784c-31.153-0.252-62.374,10.304-85.689,28.867
	c-5.94,4.73-11.436,10.022-16.344,15.817c-0.058,0.069-0.117,0.133-0.175,0.202c2.736-9.21,6.015-18.269,9.832-27.155
	c12.673-29.502,30.638-55.691,53.395-77.837c2.968-2.889,3.033-7.637,0.144-10.606c-2.889-2.968-7.637-3.032-10.605-0.144
	c-24.178,23.529-43.26,51.342-56.715,82.666c-13.899,32.356-21.068,66.865-21.311,102.57c0,0.017-0.001,0.033-0.001,0.05
	c0,0.015,0,0.03,0,0.045c0,0.013-0.001,0.025,0,0.048c-0.009,0.571-0.01,1.135-0.01,1.707c0,68.322,25.526,132.569,71.875,180.908
	C128.529,485.332,190.288,512,255.997,512c34.423,0,67.724-7.271,98.976-21.611c30.159-13.838,56.975-33.562,79.704-58.622
	c2.783-3.068,2.552-7.811-0.517-10.594c-3.068-2.783-7.812-2.551-10.594,0.517c-21.36,23.551-46.543,42.078-74.85,55.066
	C319.441,490.188,288.246,497,255.997,497c-61.583,0-119.497-25.028-163.072-70.474C49.267,380.994,25.223,320.434,25.223,256
	c0-0.516,0-1.023,0.009-1.564c0.529-37.866,19.938-61.177,36.126-74.065c20.681-16.464,48.474-25.795,76.242-25.603
	c23.134,0.161,47.136,7.285,64.144,23.52c14.503,13.843,21.456,33.199,22.366,52.959c0.007,0.148,0.01,0.299,0.017,0.448
	c-9.683,5.541-17.077,13.627-20.678,23.382c-1.52,4.117-2.292,8.4-2.292,12.729c0,24.386,24.602,44.226,54.841,44.226
	s54.841-19.839,54.841-44.226c0-15.44-9.963-28.668-22.969-36.111c0.006-0.148,0.01-0.299,0.017-0.447
	c0.019-0.421,0.043-0.838,0.067-1.255c0.898-15.707,5.615-31.49,15.371-44.026c0.018-0.023,0.035-0.047,0.053-0.071
	c14.858-19.199,38.888-28.849,62.566-30.758c2.812-0.227,5.632-0.349,8.453-0.37c27.177-0.204,54.897,8.61,76.241,25.603
	c22.88,18.217,35.568,44.934,36.126,74.104c0.01,0.511,0.009,1.014,0.009,1.525c0,51.845-15.534,101.248-44.922,142.868
	c-2.389,3.384-1.583,8.063,1.8,10.453c3.383,2.389,8.063,1.583,10.453-1.8c31.186-44.165,47.669-96.559,47.669-151.52
	C501.771,255.415,501.77,254.844,501.761,254.283z M292.655,256.448c-1.936,1.638-5.143,3.656-10.42,5.526
	c-8.365,2.964-17.393,4.069-26.238,4.069c-8.833,0-17.883-1.11-26.238-4.069c-5.277-1.869-8.484-3.887-10.42-5.525
	c3.165-5.394,8.575-10.105,15.372-13.299c6.632-3.116,13.974-4.58,21.286-4.58c7.291,0,14.651,1.484,21.271,4.574
	C284.072,246.337,289.488,251.052,292.655,256.448z M255.997,297.031c-19.738,0-36.17-10.584-39.303-24.422
	c0.082,0.044,0.169,0.085,0.252,0.128c10.948,5.798,23.441,7.907,35.713,8.255c12.591,0.358,25.496-1.077,37.232-5.86
	c1.79-0.729,3.662-1.587,5.408-2.524C292.167,286.446,275.735,297.031,255.997,297.031z"/>
<g>
</g>
<g>
</g>
<g>
</g>
<g>
</g>
<g>
</g>
<g>
</g>
<g>
</g>
<g>
</g>
<g>
</g>
<g>
</g>
<g>
</g>
<g>
</g>
<g>
</g>
<g>
</g>
<g>
</g>
</svg>
